<svg xmlns="http://www.w3.org/2000/svg" xmlns:xlink="http://www.w3.org/1999/xlink" width="500" zoomAndPan="magnify" viewBox="0 0 375 374.999991" height="500" preserveAspectRatio="xMidYMid meet" version="1.0"><defs><g/></defs><g fill="#ec4e20" fill-opacity="1"><g transform="translate(22.470514, 304.499985)"><g><path d="M 118.65625 -245 C 137.78125 -245 154.398438 -242.082031 168.515625 -236.25 C 182.640625 -230.414062 193.375 -222.539062 200.71875 -212.625 C 208.070312 -202.707031 211.75 -191.679688 211.75 -179.546875 C 211.75 -167.410156 208.484375 -156.5 201.953125 -146.8125 C 195.421875 -137.132812 187.019531 -130.3125 176.75 -126.34375 L 176.75 -124.953125 C 190.050781 -120.753906 200.375 -113.460938 207.71875 -103.078125 C 215.070312 -92.691406 218.75 -80.148438 218.75 -65.453125 C 217.8125 -44.921875 208.882812 -28.175781 191.96875 -15.21875 C 175.050781 -2.269531 150.144531 4.203125 117.25 4.203125 C 94.613281 4.203125 75.59375 1.171875 60.1875 -4.890625 C 44.789062 -10.960938 33.359375 -19.25 25.890625 -29.75 C 18.429688 -40.25 14.703125 -52.03125 14.703125 -65.09375 L 14.703125 -72.453125 L 76.296875 -72.453125 C 76.296875 -53.316406 88.429688 -43.75 112.703125 -43.75 C 136.960938 -43.75 149.09375 -54.484375 149.09375 -75.953125 C 149.09375 -84.117188 146.816406 -90.359375 142.265625 -94.671875 C 137.722656 -98.992188 131.832031 -101.15625 124.59375 -101.15625 L 99.046875 -101.15625 L 99.046875 -144.203125 L 119 -144.203125 C 126.226562 -144.203125 132.117188 -146.359375 136.671875 -150.671875 C 141.222656 -154.992188 143.5 -161.238281 143.5 -169.40625 C 143.5 -177.101562 140.753906 -183.632812 135.265625 -189 C 129.785156 -194.363281 122.265625 -197.046875 112.703125 -197.046875 C 102.671875 -197.046875 94.851562 -194.476562 89.25 -189.34375 C 83.644531 -184.21875 80.84375 -177.921875 80.84375 -170.453125 L 22.40625 -170.453125 L 22.40625 -179.203125 C 22.40625 -191.335938 26.195312 -202.421875 33.78125 -212.453125 C 41.363281 -222.484375 52.445312 -230.414062 67.03125 -236.25 C 81.613281 -242.082031 98.820312 -245 118.65625 -245 Z M 118.65625 -245 "/></g></g></g><g fill="#ec4e20" fill-opacity="1"><g transform="translate(235.96676, 304.499985)"><g><path d="M 21.34375 0 L 21.34375 -69.65625 L 95.546875 -69.65625 L 95.546875 0 Z M 21.34375 0 "/></g></g></g></svg>